<svg width="64" height="64" viewBox="0 0 64 64" fill="none" xmlns="http://www.w3.org/2000/svg">
<path d="M17 27.398C17 26.8818 17 26.6236 17.0227 26.4062C17.2412 24.3092 18.986 22.6504 21.1915 22.4426C21.4202 22.4211 21.7064 22.4211 22.2787 22.4211C22.4992 22.4211 22.6094 22.4211 22.703 22.4157C23.8984 22.3468 24.9452 21.6295 25.3919 20.5731C25.4269 20.4903 25.4596 20.3971 25.525 20.2105C25.5904 20.024 25.6231 19.9307 25.6581 19.848C26.1048 18.7916 27.1516 18.0742 28.347 18.0054C28.4406 18 28.544 18 28.7508 18H36.2492C36.456 18 36.5594 18 36.653 18.0054C37.8484 18.0742 38.8952 18.7916 39.3419 19.848C39.3769 19.9307 39.4096 20.024 39.475 20.2105C39.5404 20.3971 39.5731 20.4903 39.6081 20.5731C40.0548 21.6295 41.1016 22.3468 42.297 22.4157C42.3906 22.4211 42.5008 22.4211 42.7213 22.4211C43.2936 22.4211 43.5798 22.4211 43.8085 22.4426C46.014 22.6504 47.7588 24.3092 47.9773 26.4062C48 26.6236 48 26.8818 48 27.398V38.9263C48 41.4023 48 42.6403 47.4932 43.5861C47.0474 44.4179 46.336 45.0943 45.4611 45.5181C44.4664 46 43.1642 46 40.56 46H24.44C21.8358 46 20.5336 46 19.5389 45.5181C18.664 45.0943 17.9526 44.4179 17.5068 43.5861C17 42.6403 17 41.4023 17 38.9263V27.398Z" stroke="white" stroke-width="4" stroke-linecap="round" stroke-linejoin="round"/>
<path d="M32.5 39.3684C35.9242 39.3684 38.7 36.7293 38.7 33.4737C38.7 30.2181 35.9242 27.5789 32.5 27.5789C29.0758 27.5789 26.3 30.2181 26.3 33.4737C26.3 36.7293 29.0758 39.3684 32.5 39.3684Z" stroke="white" stroke-width="4" stroke-linecap="round" stroke-linejoin="round"/>
</svg>
