<svg width="64" height="64" viewBox="0 0 64 64" fill="none" xmlns="http://www.w3.org/2000/svg">
<path d="M28 46V34.9394C28 34.1023 28 33.6837 28.1635 33.364C28.3073 33.0828 28.5368 32.8541 28.819 32.7108C29.1399 32.5479 29.5599 32.5479 30.4 32.5479H34.6C35.4401 32.5479 35.8601 32.5479 36.181 32.7108C36.4632 32.8541 36.6927 33.0828 36.8365 33.364C37 33.6837 37 34.1023 37 34.9394V46M31.0265 18.7431L20.8531 26.6277C20.173 27.1547 19.833 27.4183 19.588 27.7483C19.371 28.0406 19.2094 28.37 19.111 28.7201C19 29.1154 19 29.5447 19 30.4031V41.217C19 42.8912 19 43.7283 19.327 44.3678C19.6146 44.9303 20.0735 45.3876 20.638 45.6742C21.2798 46 22.1198 46 23.8 46H41.2C42.8802 46 43.7202 46 44.362 45.6742C44.9265 45.3876 45.3854 44.9303 45.673 44.3678C46 43.7283 46 42.8912 46 41.217V30.4031C46 29.5447 46 29.1154 45.889 28.7201C45.7906 28.37 45.629 28.0406 45.412 27.7483C45.167 27.4183 44.827 27.1547 44.1469 26.6277L33.9735 18.7431C33.4465 18.3347 33.183 18.1304 32.892 18.0519C32.6353 17.9827 32.3647 17.9827 32.108 18.0519C31.817 18.1304 31.5535 18.3347 31.0265 18.7431Z" stroke="white" stroke-width="4" stroke-linecap="round" stroke-linejoin="round"/>
</svg>
