<svg width="64" height="64" viewBox="0 0 64 64" fill="none" xmlns="http://www.w3.org/2000/svg">
<path d="M43 23V21.1988C43 20.0795 43 19.5198 42.782 19.092C42.5903 18.7157 42.2843 18.4097 41.908 18.218C41.4802 18 40.9201 18 39.8 18H21.7778C20.2437 18 19 19.3929 19 21.1111V42.8889C19 44.6071 20.2437 46 21.7778 46H26M35.9938 30.8985C34.1944 28.8208 31.1938 28.2619 28.9392 30.1645C26.6847 32.067 26.3673 35.248 28.1378 37.4981C29.9083 39.7483 35.9938 45 35.9938 45C35.9938 45 42.0794 39.7483 43.8499 37.4981C45.6204 35.248 45.3417 32.047 43.0484 30.1645C40.7551 28.2819 37.7933 28.8208 35.9938 30.8985Z" stroke="white" stroke-width="4" stroke-linecap="round" stroke-linejoin="round"/>
</svg>
